<svg xmlns="http://www.w3.org/2000/svg" viewBox="0 0 50 50" fill="none" stroke="#2D2A26" stroke-width="1.5" stroke-linecap="round" stroke-linejoin="round">
  <!-- Chick body -->
  <ellipse cx="25" cy="32" rx="16" ry="14" fill="#FFD93D"/>
  <!-- Chick head -->
  <circle cx="25" cy="16" r="12" fill="#FFD93D"/>
  <!-- Tuft on head -->
  <path d="M23 5 Q25 1, 27 5"/>
  <path d="M20 6 Q22 3, 24 6"/>
  <!-- Eyes -->
  <circle cx="20" cy="14" r="2.5" fill="#2D2A26"/>
  <circle cx="30" cy="14" r="2.5" fill="#2D2A26"/>
  <circle cx="21" cy="13" r="1" fill="#FAF8F5"/>
  <circle cx="31" cy="13" r="1" fill="#FAF8F5"/>
  <!-- Beak -->
  <path d="M25 18 L22 22 L25 21 L28 22 Z" fill="#FF8C00"/>
  <!-- Blush -->
  <ellipse cx="14" cy="18" rx="3" ry="2" fill="#FFB6C1" opacity="0.5"/>
  <ellipse cx="36" cy="18" rx="3" ry="2" fill="#FFB6C1" opacity="0.5"/>
  <!-- Wing -->
  <path d="M38 28 Q45 32, 42 38 Q38 35, 38 28" fill="#FFCC00"/>
  <!-- Feet -->
  <path d="M18 45 L15 50 M18 45 L18 50 M18 45 L21 50"/>
  <path d="M32 45 L29 50 M32 45 L32 50 M32 45 L35 50"/>
</svg>
