<svg xmlns="http://www.w3.org/2000/svg" viewBox="0 0 70 50" fill="none" stroke="#2D2A26" stroke-width="1.5" stroke-linecap="round" stroke-linejoin="round">
  <!-- Conveyor belt base -->
  <rect x="5" y="30" width="60" height="12" rx="6" fill="#7A756D"/>
  <!-- Belt rollers -->
  <circle cx="11" cy="36" r="5" fill="#4A4541"/>
  <circle cx="59" cy="36" r="5" fill="#4A4541"/>
  <!-- Belt track -->
  <line x1="11" y1="30" x2="59" y2="30"/>
  <line x1="11" y1="42" x2="59" y2="42"/>
  <!-- Task boxes on belt -->
  <rect x="15" y="20" width="12" height="10" rx="2" fill="#4A7BBA"/>
  <rect x="32" y="20" width="12" height="10" rx="2" fill="#5A9E6F"/>
  <rect x="49" y="20" width="12" height="10" rx="2" fill="#C25B5B"/>
  <!-- Arrows showing movement -->
  <path d="M8 15 L18 15" stroke="#4A7BBA"/>
  <path d="M15 15 L18 12 M15 15 L18 18" stroke="#4A7BBA"/>
  <!-- Gear icon -->
  <circle cx="35" cy="8" r="5" stroke="#7A756D"/>
  <path d="M35 2 L35 4 M35 12 L35 14 M29 8 L31 8 M39 8 L41 8" stroke="#7A756D"/>
</svg>
